# This file uses centimeters as units for non-parametric coordinates.

mtllib Wall_Window.mtl
g default
v -6.469927 9.758458 -238.843644
v 6.469927 9.758458 -238.843644
v -6.469927 22.698312 -238.843644
v 6.469927 22.698312 -238.843644
v -6.469927 22.698312 -251.783498
v 6.469927 22.698312 -251.783498
v -6.469927 9.758458 -251.783498
v 6.469927 9.758458 -251.783498
vt 0.375000 0.000000
vt 0.625000 0.000000
vt 0.375000 0.250000
vt 0.625000 0.250000
vt 0.375000 0.500000
vt 0.625000 0.500000
vt 0.375000 0.750000
vt 0.625000 0.750000
vt 0.375000 1.000000
vt 0.625000 1.000000
vt 0.875000 0.000000
vt 0.875000 0.250000
vt 0.125000 0.000000
vt 0.125000 0.250000
vn 0.000000 0.000000 1.000000
vn 0.000000 0.000000 1.000000
vn 0.000000 0.000000 1.000000
vn 0.000000 0.000000 1.000000
vn 0.000000 1.000000 0.000000
vn 0.000000 1.000000 0.000000
vn 0.000000 1.000000 0.000000
vn 0.000000 1.000000 0.000000
vn 0.000000 0.000000 -1.000000
vn 0.000000 0.000000 -1.000000
vn 0.000000 0.000000 -1.000000
vn 0.000000 0.000000 -1.000000
vn 0.000000 -1.000000 0.000000
vn 0.000000 -1.000000 0.000000
vn 0.000000 -1.000000 0.000000
vn 0.000000 -1.000000 0.000000
vn 1.000000 0.000000 0.000000
vn 1.000000 0.000000 0.000000
vn 1.000000 0.000000 0.000000
vn 1.000000 0.000000 0.000000
vn -1.000000 0.000000 0.000000
vn -1.000000 0.000000 0.000000
vn -1.000000 0.000000 0.000000
vn -1.000000 0.000000 0.000000
s off
g pCube528
usemtl aiStandardSurface2SG
f 1/1/1 2/2/2 4/4/3 3/3/4
f 3/3/5 4/4/6 6/6/7 5/5/8
f 5/5/9 6/6/10 8/8/11 7/7/12
f 7/7/13 8/8/14 2/10/15 1/9/16
f 2/2/17 8/11/18 6/12/19 4/4/20
f 7/13/21 1/1/22 3/3/23 5/14/24
g default
v 15.500000 2.235584 -244.376985
v 15.500000 2.235584 -245.376985
v 15.500000 30.035583 -245.376985
v 15.500000 30.035583 -244.376985
v -15.500000 30.035583 -244.376985
v -15.500000 30.035583 -245.376985
v 8.239908 8.169857 -244.376985
v 8.239908 24.649673 -244.376985
v 8.239908 24.649673 -245.376985
v 8.239908 8.169857 -245.376985
v -8.239908 24.649673 -244.376985
v -8.239908 24.649673 -245.376985
v -8.239908 8.169857 -245.376985
v -8.239908 8.169857 -244.376985
v -15.500000 2.235584 -245.376985
v -15.500000 2.235584 -244.376985
vt 0.625000 0.000000
vt 0.875000 0.000000
vt 0.875000 0.250000
vt 0.625000 0.250000
vt 0.375000 0.250000
vt 0.625000 0.500000
vt 0.375000 0.500000
vt 0.799266 0.000000
vt 0.799266 0.250000
vt 0.814436 0.250000
vt 0.814436 0.000000
vt 0.625000 0.424266
vt 0.375000 0.424266
vt 0.375000 0.439436
vt 0.625000 0.439436
vt 0.625000 0.810564
vt 0.375000 0.810564
vt 0.375000 0.825734
vt 0.625000 0.825734
vt 0.185564 0.000000
vt 0.185564 0.250000
vt 0.200734 0.250000
vt 0.200734 0.000000
vt 0.375000 0.750000
vt 0.625000 0.750000
vt 0.625000 1.000000
vt 0.375000 1.000000
vt 0.125000 0.000000
vt 0.375000 0.000000
vt 0.125000 0.250000
vt 0.566451 0.201566
vt 0.566451 0.053366
vt 0.433549 0.053366
vt 0.433549 0.201566
vt 0.433549 0.696634
vt 0.566451 0.696634
vt 0.566451 0.548434
vt 0.433549 0.548434
vn 1.000000 0.000000 0.000000
vn 1.000000 0.000000 0.000000
vn 1.000000 0.000000 0.000000
vn 1.000000 0.000000 0.000000
vn 0.000000 1.000000 0.000000
vn 0.000000 1.000000 0.000000
vn 0.000000 1.000000 0.000000
vn 0.000000 1.000000 0.000000
vn -1.000000 0.000000 0.000000
vn -1.000000 0.000000 0.000000
vn -1.000000 0.000000 0.000000
vn -1.000000 0.000000 0.000000
vn 0.000000 -1.000000 0.000000
vn 0.000000 -1.000000 0.000000
vn 0.000000 -1.000000 0.000000
vn 0.000000 -1.000000 0.000000
vn 0.000000 1.000000 0.000000
vn 0.000000 1.000000 0.000000
vn 0.000000 1.000000 0.000000
vn 0.000000 1.000000 0.000000
vn 1.000000 0.000000 0.000000
vn 1.000000 0.000000 0.000000
vn 1.000000 0.000000 0.000000
vn 1.000000 0.000000 0.000000
vn 0.000000 -1.000000 0.000000
vn 0.000000 -1.000000 0.000000
vn 0.000000 -1.000000 0.000000
vn 0.000000 -1.000000 0.000000
vn -1.000000 0.000000 0.000000
vn -1.000000 0.000000 0.000000
vn -1.000000 0.000000 0.000000
vn -1.000000 0.000000 0.000000
vn 0.000000 0.000000 1.000000
vn 0.000000 0.000000 1.000000
vn 0.000000 0.000000 1.000000
vn 0.000000 0.000000 1.000000
vn 0.000000 0.000000 1.000000
vn 0.000000 0.000000 1.000000
vn 0.000000 0.000000 1.000000
vn 0.000000 0.000000 1.000000
vn 0.000000 0.000000 -1.000000
vn 0.000000 0.000000 -1.000000
vn 0.000000 0.000000 -1.000000
vn 0.000000 0.000000 -1.000000
vn 0.000000 0.000000 -1.000000
vn 0.000000 0.000000 -1.000000
vn 0.000000 0.000000 -1.000000
vn 0.000000 0.000000 -1.000000
s off
g polySurface1
usemtl initialShadingGroup
f 9/15/25 10/16/26 11/17/27 12/18/28
f 13/19/29 12/18/30 11/20/31 14/21/32
f 15/22/33 16/23/34 17/24/35 18/25/36
f 16/26/37 19/27/38 20/28/39 17/29/40
f 18/30/41 21/31/42 22/32/43 15/33/44
f 21/34/45 20/35/46 19/36/47 22/37/48
f 23/38/49 10/39/50 9/40/51 24/41/52
f 23/42/53 24/43/54 13/19/55 14/44/56
s 1
f 16/45/57 15/46/58 22/47/59 24/43/60 9/15/61 12/18/62
f 24/43/60 22/47/59 19/48/63 16/45/57 12/18/62 13/19/64
s 2
f 11/20/65 10/39/66 23/38/67 21/49/68 18/50/69 17/51/70
f 14/21/71 11/20/65 17/51/70 20/52/72 21/49/68 23/38/67
